<svg xmlns="http://www.w3.org/2000/svg" width="163.707" height="34.493" viewBox="0 0 163.707 34.493"><g transform="translate(-179.711 -87.139)"><path d="M43.511,15.482h3.121c5.128,0,7.771,1.115,7.771,4.14,0,2.675-2.1,3.79-5.383,3.79h-5l-5.733,4.013h10.7c6.4,0,10.7-2.293,10.7-7.644,0-4.65-3.822-6.465-7.23-6.465a5.444,5.444,0,0,0,5.128-5.669c0-3.567-3.281-6.147-7.007-6.147H37.3l.955,2.134V25.578l5.223-3.663V15.482Zm0-10h5.478c1.5,0,3.408.35,3.408,2.93,0,2.548-2.739,3.6-4.746,3.6h-4.14Z" transform="translate(153.24 85.957)" fill="#22409a"/><path d="M121.311,5.413h3.567c1.465,0,8.982.382,8.982,8.95,0,9.81-8.982,8.95-8.982,8.95h-3.089l-5.733,4.013h10.287c6.4,0,12.963-3.949,12.963-12.963,0-7.994-5.733-12.963-12.963-12.963H115.1l.955,2.134V25.478l5.255-3.663Z" transform="translate(100.219 86.025)" fill="#22409a"/><path d="M198.8,13.749C198.8,24.1,207.176,27,212.591,27s13.791-2.9,13.791-13.249S218.005.5,212.591.5C207.145.5,198.8,3.4,198.8,13.749Zm5.446,0c0-7.325,5.064-9.4,8.313-9.4,3.281,0,8.313,2.07,8.313,9.4s-5.064,9.4-8.313,9.4S204.246,21.075,204.246,13.749Z" transform="translate(43.178 86.639)" fill="#22409a"/><path d="M3.3,1.4V33.727L8.428,30.16V1.4Z" transform="translate(176.411 86.025)" fill="#e00d2e"/><path d="M9.383,95.4,3.3,99.668H92.829V95.4Z" transform="translate(176.411 21.964)" fill="#e00d2e"/><path d="M327.5,20.387V15.1h1.911v5.255a2.07,2.07,0,1,0,4.14,0V15.1h1.911v5.287c0,2.2-1.306,3.695-3.981,3.695S327.5,22.585,327.5,20.387Z" transform="translate(-44.532 76.689)" fill="#e00d2e"/><path d="M364.083,23.922l-4.2-5.765v5.765H358V15.1h1.943l4.109,5.542V15.1h1.879v8.822Z" transform="translate(-65.318 76.689)" fill="#e00d2e"/><path d="M388.3,23.922V15.1h1.879v8.822Z" transform="translate(-85.968 76.689)" fill="#e00d2e"/><path d="M400.58,23.922V16.756H398V15.1h7.039v1.656h-2.58v7.166Z" transform="translate(-92.578 76.689)" fill="#e00d2e"/><path d="M423.9,23.922V15.1h6.242v1.656h-4.363v1.879h4.268v1.656h-4.268V22.3h4.363v1.656H423.9Z" transform="translate(-110.229 76.689)" fill="#e00d2e"/><path d="M448.2,23.922V15.1h3.472c2.771,0,4.682,1.752,4.682,4.427s-1.911,4.427-4.682,4.427H448.2Zm6.243-4.427a2.59,2.59,0,0,0-2.771-2.771h-1.592v5.51h1.592A2.615,2.615,0,0,0,454.443,19.5Z" transform="translate(-126.789 76.689)" fill="#e00d2e"/><path d="M332.755,69.822l-2.675-3.535-.7.828v2.707H327.5V61h1.879v3.949L332.5,61h2.325l-3.5,4.14,3.758,4.682Z" transform="translate(-44.532 45.408)" fill="#e00d2e"/><path d="M353.9,69.822V61h1.879v8.822Z" transform="translate(-62.523 45.408)" fill="#e00d2e"/><path d="M371.483,69.822l-4.2-5.765v5.765H365.4V61h1.943l4.109,5.542V61h1.879v8.822Z" transform="translate(-70.361 45.408)" fill="#e00d2e"/><path d="M394.3,65.086a4.5,4.5,0,0,1,4.714-4.586,4.135,4.135,0,0,1,3.663,1.975l-1.561.86a2.441,2.441,0,0,0-2.1-1.147,2.9,2.9,0,0,0,0,5.8,3,3,0,0,0,1.879-.669V66.265h-2.325V64.609h4.2v3.376a4.847,4.847,0,0,1-3.758,1.656A4.474,4.474,0,0,1,394.3,65.086Z" transform="translate(-90.057 45.749)" fill="#e00d2e"/><path d="M425.6,69.822V61h3.472c2.771,0,4.682,1.752,4.682,4.427s-1.911,4.427-4.682,4.427H425.6Zm6.274-4.4a2.59,2.59,0,0,0-2.771-2.771h-1.592v5.51H429.1A2.632,2.632,0,0,0,431.874,65.427Z" transform="translate(-111.388 45.408)" fill="#e00d2e"/><path d="M454.2,65.086a4.618,4.618,0,1,1,4.618,4.586A4.442,4.442,0,0,1,454.2,65.086Zm7.294,0a2.684,2.684,0,1,0-2.675,2.9A2.672,2.672,0,0,0,461.494,65.086Z" transform="translate(-130.879 45.749)" fill="#e00d2e"/><path d="M494.976,69.822V63.644l-2.484,6.179h-.828l-2.484-6.179v6.179H487.3V61h2.643l2.134,5.351L494.211,61h2.644v8.822h-1.879Z" transform="translate(-153.437 45.408)" fill="#e00d2e"/></g></svg>