<?xml version="1.0" standalone="no"?>
<!DOCTYPE svg PUBLIC "-//W3C//DTD SVG 20010904//EN"
 "http://www.w3.org/TR/2001/REC-SVG-20010904/DTD/svg10.dtd">
<svg version="1.0" xmlns="http://www.w3.org/2000/svg"
 width="270.000000pt" height="270.000000pt" viewBox="0 0 270.000000 270.000000"
 preserveAspectRatio="xMidYMid meet">
<metadata>
Created by potrace 1.11, written by Peter Selinger 2001-2013
</metadata>
<g transform="translate(0.000000,270.000000) scale(0.100000,-0.100000)"
fill="#000000" stroke="none">
<path d="M170 1372 l0 -423 63 42 c34 23 64 44 67 46 3 3 5 173 5 379 0 327
-2 374 -15 375 -8 0 -39 1 -68 2 l-52 2 0 -423z"/>
<path d="M1117 1775 c4 -11 9 -154 10 -317 l4 -297 69 51 70 50 0 215 0 214
79 -5 c172 -9 254 -93 246 -253 -4 -72 -32 -132 -77 -166 -47 -35 -86 -45
-165 -45 -50 0 -77 -5 -98 -18 -51 -33 -114 -79 -115 -84 0 -7 318 -4 348 4
121 28 214 119 242 235 35 147 -15 295 -125 371 -73 51 -126 61 -321 63 -171
2 -175 2 -167 -18z"/>
<path d="M2059 1786 c-166 -48 -252 -161 -251 -331 0 -107 27 -179 92 -245 68
-67 137 -93 260 -96 86 -3 101 0 165 26 83 36 145 93 177 164 18 42 22 69 23
151 0 90 -3 106 -28 157 -35 71 -101 130 -176 159 -70 26 -198 34 -262 15z
m206 -111 c76 -37 118 -117 118 -230 -1 -198 -196 -303 -351 -188 -52 39 -76
95 -79 189 -2 70 1 88 23 133 53 106 178 148 289 96z"/>
<path d="M466 1763 c11 -22 14 -85 14 -310 0 -156 2 -283 5 -283 14 0 125 86
129 99 3 9 5 41 4 71 0 96 -9 88 90 84 142 -5 192 -31 192 -101 0 -77 -46
-103 -181 -103 l-89 0 -70 -47 c-38 -27 -69 -50 -70 -53 0 -9 340 -4 380 5
108 24 171 91 172 184 0 82 -55 153 -129 167 l-36 7 35 18 c43 22 81 92 74
136 -2 15 -5 33 -5 40 -2 22 -63 84 -99 98 -26 12 -82 15 -233 15 l-198 0 15
-27z m365 -102 c36 -45 16 -107 -43 -130 -25 -9 -75 -14 -135 -12 l-33 1 0 85
0 84 96 -2 c87 -2 98 -4 115 -26z"/>
<path d="M260 964 c-36 -25 -69 -49 -74 -55 -6 -5 422 -9 1161 -9 l1171 0 4
45 c2 24 2 49 0 55 -3 7 -365 10 -1100 10 l-1097 0 -65 -46z"/>
</g>
</svg>
